<svg viewBox="0 0 200 200" xmlns="http://www.w3.org/2000/svg">
  <!-- Background circle -->
  <circle cx="100" cy="100" r="95" fill="#f5f5f5" stroke="#c0c0c0" stroke-width="2"/>

  <!-- Silver laced pattern background -->
  <defs>
    <pattern id="lace" x="0" y="0" width="20" height="20" patternUnits="userSpaceOnUse">
      <circle cx="10" cy="10" r="8" fill="none" stroke="#c0c0c0" stroke-width="1" opacity="0.3"/>
    </pattern>
  </defs>

  <circle cx="100" cy="100" r="90" fill="url(#lace)"/>

  <!-- Chicken body (simplified) -->
  <ellipse cx="100" cy="85" rx="35" ry="40" fill="#1a1a1a" opacity="0.9"/>

  <!-- Head -->
  <circle cx="100" cy="50" r="18" fill="#1a1a1a"/>

  <!-- Eye -->
  <circle cx="106" cy="48" r="4" fill="#c0c0c0"/>

  <!-- Comb/Crest (rose comb) -->
  <path d="M 95 35 Q 100 25 105 35 Q 103 32 100 32 Q 97 32 95 35" fill="#c0c0c0"/>

  <!-- Wing pattern with lacing -->
  <ellipse cx="85" cy="85" rx="18" ry="28" fill="#333" opacity="0.8"/>
  <ellipse cx="115" cy="85" rx="18" ry="28" fill="#333" opacity="0.8"/>

  <!-- Lacing pattern on wings -->
  <g opacity="0.6">
    <circle cx="82" cy="78" r="3" fill="none" stroke="#c0c0c0" stroke-width="1"/>
    <circle cx="88" cy="82" r="3" fill="none" stroke="#c0c0c0" stroke-width="1"/>
    <circle cx="82" cy="92" r="3" fill="none" stroke="#c0c0c0" stroke-width="1"/>
    <circle cx="118" cy="78" r="3" fill="none" stroke="#c0c0c0" stroke-width="1"/>
    <circle cx="112" cy="82" r="3" fill="none" stroke="#c0c0c0" stroke-width="1"/>
    <circle cx="118" cy="92" r="3" fill="none" stroke="#c0c0c0" stroke-width="1"/>
  </g>

  <!-- Tail feathers -->
  <path d="M 105 115 L 110 130 M 100 117 L 100 135 M 95 115 L 90 130" stroke="#c0c0c0" stroke-width="3" fill="none" stroke-linecap="round"/>

  <!-- Legs -->
  <line x1="95" y1="120" x2="95" y2="135" stroke="#c0c0c0" stroke-width="2"/>
  <line x1="105" y1="120" x2="105" y2="135" stroke="#c0c0c0" stroke-width="2"/>

  <!-- Text circle -->
  <text x="100" y="160" text-anchor="middle" font-family="Arial, sans-serif" font-size="12" font-weight="bold" fill="#1a1a1a">WYANDOTTE</text>

  <!-- Decorative border -->
  <circle cx="100" cy="100" r="95" fill="none" stroke="#1a1a1a" stroke-width="3" opacity="0.3"/>
</svg>
